# xmcd CD database file
#
# Track frame offsets:
#	150
#	14775
#	30145
#	50407
#	67302
#	78362
#	94585
#	110882
#	127027
#	142125
#	160227
#	178315
#	192570
#	207987
#	224217
#	239522
#	254782
#	270347
#	284365
#	294320
#
# Disc length: 4135 seconds
#
# Revision: 1
# Processed by: cddbd v1.5.2PL0 Copyright (c) Steve Scherf et al.
# Submitted via: CDex 1.70beta2
#
DISCID=4c102514
DTITLE=Charles Wizen - Jazz a Cordes Quintet (featuring Raphaël Faÿs) - 'Djangology' - Blue Cat
DYEAR=1987
DGENRE=Jazz Manouche
TTITLE0=Djangology (1)
TTITLE1=Minor Swing
TTITLE2=Nuages
TTITLE3=All of Me
TTITLE4=New-Year
TTITLE5=Douce Ambiance
TTITLE6=Manoir de Mes Rêves
TTITLE7=Swing 42
TTITLE8=Lover Man
TTITLE9=Wizen Swing
TTITLE10=Honeysuckle Rose
TTITLE11=Songe d'Automne
TTITLE12=Bonjour Gypsy
TTITLE13=My World
TTITLE14=Sweet Georgia Brown
TTITLE15=R-26
TTITLE16=Où es-tu, Mon Amour
TTITLE17=Djangology (2)
TTITLE18=Charlette
TTITLE19=Ol' Man River
EXTD=YEAR: 1987
EXTT0=
EXTT1=
EXTT2=
EXTT3=
EXTT4=
EXTT5=
EXTT6=
EXTT7=
EXTT8=
EXTT9=
EXTT10=
EXTT11=
EXTT12=
EXTT13=
EXTT14=
EXTT15=
EXTT16=
EXTT17=
EXTT18=
EXTT19=
PLAYORDER=
